# File created by Blade
# Date/Time:  Tue Apr 07 21:36:59 2015
# Frame Rate: 120.000 fps
#------------------------------------------------------
:FULLY-SPECIFIED
:DEGREES
810
root -3.935924 33.102454 6.332700 555.174197 175.565120 -542.681610
Spine -10.894212 -9.069097 4.710705
Head 4.625414 -4.946538 0.067794
LeftShoulder -21.074260 40.278761 17.068378
LeftArm 61.531993 -50.281301 -60.399781
LeftForeArm 10.827106 -0.000000 1.980273
LeftHand 4.590867 -0.000000 9.940832
LeftHandThumb1 -26.253704 0.000000 33.147579
RightShoulder -7.368175 1.698731 -30.376474
RightArm 11.730996 15.236576 43.572670
RightForeArm -14.128078 -0.000000 5.924286
RightHand 6.393632 -0.000000 -5.787901
RightHandThumb1 -24.326973 -0.000000 -32.862282
LeftUpLeg -10.997574 -1.967128 5.376811
LeftLeg -2.905655 -0.000000 0.000000
LeftFoot -3.910407 8.226183 -18.780159
LeftToeBase -8.326215 -0.000000 0.000000
RightUpLeg -10.663378 5.352523 0.578580
RightLeg -0.277976 -0.000000 0.000000
RightFoot -6.514470 -15.884606 7.661576
RightToeBase -6.246268 -0.000000 0.000000
811
root -3.928594 33.107185 6.312594 555.122762 175.717370 -542.645790
Spine -10.903220 -8.825049 4.563715
Head 4.882556 -4.986574 -0.115499
LeftShoulder -21.155577 40.138517 17.097643
LeftArm 61.169134 -50.276991 -59.879599
LeftForeArm 10.997582 -0.000000 1.745742
LeftHand 4.306774 -0.000000 9.588373
LeftHandThumb1 -26.253704 0.000000 33.147579
RightShoulder -7.270195 1.807062 -30.444058
RightArm 11.830922 15.285873 43.535555
RightForeArm -14.443833 0.000000 5.584597
RightHand 5.901114 -0.000000 -5.243836
RightHandThumb1 -24.326973 -0.000000 -32.862282
LeftUpLeg -10.970834 -1.940732 5.287722
LeftLeg -2.868984 -0.000000 0.000000
LeftFoot -3.923773 8.378546 -18.559993
LeftToeBase -8.320353 -0.000000 0.000000
RightUpLeg -10.657851 5.405438 0.502388
RightLeg -0.277502 -0.000000 0.000000
RightFoot -6.560404 -15.863625 7.864629
RightToeBase -6.187234 -0.000000 0.000000
812
root -3.922013 33.110636 6.295463 555.082248 175.881053 -542.596368
Spine -10.930928 -8.565276 4.383077
Head 5.124393 -4.979788 -0.234415
LeftShoulder -21.171190 39.967372 17.179041
LeftArm 60.836653 -50.361228 -59.438753
LeftForeArm 11.053996 -0.000000 1.570009
LeftHand 3.736509 -0.000000 8.759750
LeftHandThumb1 -26.253704 0.000000 33.147579
RightShoulder -7.226076 1.995635 -30.518320
RightArm 11.909667 15.296364 43.517051
RightForeArm -14.727872 -0.000000 5.221447
RightHand 5.359674 0.000000 -4.561531
RightHandThumb1 -24.326973 -0.000000 -32.862282
LeftUpLeg -10.941825 -1.879747 5.181287
LeftLeg -2.842749 -0.000000 0.000000
LeftFoot -3.940593 8.489234 -18.425039
LeftToeBase -8.252920 -0.000000 0.000000
RightUpLeg -10.660346 5.492063 0.418332
RightLeg -0.267378 -0.000000 0.000000
RightFoot -6.520529 -15.873821 7.857273
RightToeBase -6.391615 -0.000000 0.000000
813
root -3.911932 33.111448 6.279313 555.043300 176.023366 -542.521385
Spine -10.965029 -8.301787 4.188602
Head 5.395045 -5.055977 -0.361161
LeftShoulder -21.178701 39.775223 17.309390
LeftArm 60.564878 -50.374142 -59.056273
LeftForeArm 10.977545 -0.000000 1.223776
LeftHand 3.512515 -0.000000 8.036813
LeftHandThumb1 -26.253704 0.000000 33.147579
RightShoulder -7.231010 2.170261 -30.594744
RightArm 12.005579 15.188749 43.442438
RightForeArm -14.908961 -0.000000 4.808512
RightHand 4.820103 -0.000000 -3.925825
RightHandThumb1 -24.326973 -0.000000 -32.862282
LeftUpLeg -10.916426 -1.861000 5.053548
LeftLeg -2.818306 -0.000000 0.000000
LeftFoot -3.963937 8.628543 -18.269759
LeftToeBase -8.280909 -0.000000 0.000000
RightUpLeg -10.653600 5.547671 0.315287
RightLeg -0.275063 -0.000000 0.000000
RightFoot -6.570854 -15.948469 7.924858
RightToeBase -6.347435 -0.000000 0.000000
814
root -3.901802 33.110703 6.266171 554.979146 176.172131 -542.427457
Spine -10.971716 -8.041958 3.969488
Head 5.646217 -5.117799 -0.492129
LeftShoulder -21.200044 39.638766 17.405389
LeftArm 60.454844 -50.465555 -58.811284
LeftForeArm 11.273882 -0.000000 0.749053
LeftHand 3.362780 -0.000000 7.503908
LeftHandThumb1 -26.253704 0.000000 33.147579
RightShoulder -7.284103 2.316052 -30.634433
RightArm 12.116742 15.165194 43.330392
RightForeArm -15.268570 0.000000 4.506613
RightHand 4.167805 -0.000000 -3.223753
RightHandThumb1 -24.326973 -0.000000 -32.862282
LeftUpLeg -10.849398 -1.886108 4.920533
LeftLeg -2.817224 -0.000000 0.000000
LeftFoot -3.933864 8.717671 -18.394448
LeftToeBase -8.708141 -0.000000 0.000000
RightUpLeg -10.602421 5.621568 0.198717
RightLeg -0.297134 -0.000000 0.000000
RightFoot -6.570580 -16.040325 7.871323
RightToeBase -6.431211 -0.000000 0.000000
815
root -3.891705 33.108188 6.256260 554.905037 176.333954 -542.317195
Spine -10.980466 -7.828869 3.761004
Head 5.910642 -5.115872 -0.654313
LeftShoulder -21.277497 39.469288 17.445537
LeftArm 60.435661 -50.677862 -58.739923
LeftForeArm 11.134643 -0.000000 0.395259
LeftHand 3.120169 -0.000000 6.957580
LeftHandThumb1 -26.253704 0.000000 33.147579
RightShoulder -7.279532 2.481118 -30.707188
RightArm 12.164087 15.132433 43.199863
RightForeArm -15.568217 -0.000000 4.253871
RightHand 3.845172 0.000000 -2.670413
RightHandThumb1 -24.326973 -0.000000 -32.862282
LeftUpLeg -10.760827 -1.912607 4.765485
LeftLeg -2.818928 -0.000000 0.000000
LeftFoot -4.030453 8.937565 -18.039243
LeftToeBase -8.364731 -0.000000 0.000000
RightUpLeg -10.521087 5.710948 0.062821
RightLeg -0.343255 -0.000000 0.000000
RightFoot -6.596712 -16.156290 7.812797
RightToeBase -6.563871 -0.000000 0.000000
816
root -3.880775 33.103979 6.249283 554.808011 176.456684 -542.208103
Spine -10.969887 -7.675146 3.572889
Head 6.159101 -5.096259 -0.826670
LeftShoulder -21.361574 39.335179 17.481179
LeftArm 60.252436 -50.847360 -58.501420
LeftForeArm 11.300006 -0.000000 -0.080455
LeftHand 3.332412 0.000000 6.833535
LeftHandThumb1 -26.253704 0.000000 33.147579
RightShoulder -7.285300 2.647869 -30.788032
RightArm 12.230775 15.102875 43.064930
RightForeArm -15.974476 -0.000000 3.978871
RightHand 3.441779 0.000000 -2.004897
RightHandThumb1 -24.326973 -0.000000 -32.862282
LeftUpLeg -10.640632 -2.028986 4.634655
LeftLeg -2.838948 -0.000000 0.000000
LeftFoot -4.098013 9.115849 -17.955020
LeftToeBase -8.330763 -0.000000 0.000000
RightUpLeg -10.386908 5.746060 -0.056557
RightLeg -0.429070 -0.000000 0.000000
RightFoot -6.609693 -16.278192 7.737470
RightToeBase -6.817814 -0.000000 0.000000
817
root -3.870453 33.097866 6.245485 554.695594 176.569893 -542.112402
Spine -10.944457 -7.547525 3.411475
Head 6.392129 -5.049993 -1.012206
LeftShoulder -21.487855 39.190111 17.482333
LeftArm 60.131171 -51.141796 -58.395310
LeftForeArm 11.202921 -0.000000 -0.323927
LeftHand 3.374269 -0.000000 5.247273
LeftHandThumb1 -26.253704 0.000000 33.147579
RightShoulder -7.295425 2.793719 -30.886124
RightArm 12.303902 15.065556 42.920855
RightForeArm -16.224691 -0.000000 3.730589
RightHand 3.041115 -0.000000 -1.438318
RightHandThumb1 -24.326973 -0.000000 -32.862282
LeftUpLeg -10.507406 -2.132349 4.520561
LeftLeg -2.847693 -0.000000 0.000000
LeftFoot -4.177431 9.255695 -17.879158
LeftToeBase -8.421539 -0.000000 0.000000
RightUpLeg -10.217554 5.754717 -0.153793
RightLeg -0.538073 -0.000000 0.000000
RightFoot -6.621467 -16.360002 7.649324
RightToeBase -7.061633 -0.000000 0.000000
818
root -3.861919 33.091443 6.244466 554.564358 176.642652 -542.041968
Spine -10.902862 -7.462776 3.278862
Head 6.611940 -4.873550 -1.191842
LeftShoulder -21.535465 39.011169 17.530947
LeftArm 59.605817 -51.180630 -57.827406
LeftForeArm 11.439121 0.000000 -0.423983
LeftHand 2.181810 -0.000000 5.167718
LeftHandThumb1 -26.253704 0.000000 33.147579
RightShoulder -7.302587 2.876386 -30.920721
RightArm 12.408155 15.014729 42.680645
RightForeArm -16.374990 -0.000000 3.485625
RightHand 2.692846 0.000000 -0.946684
RightHandThumb1 -24.326973 -0.000000 -32.862282
LeftUpLeg -10.400382 -2.107906 4.414862
LeftLeg -2.772425 -0.000000 0.000000
LeftFoot -4.198461 9.167654 -18.007234
LeftToeBase -8.929824 -0.000000 0.000000
RightUpLeg -10.010279 5.711058 -0.207467
RightLeg -0.680700 -0.000000 0.000000
RightFoot -6.590219 -16.440445 7.544768
RightToeBase -7.427565 -0.000000 0.000000
819
root -3.851786 33.083310 6.246705 554.458017 176.679113 -541.976837
Spine -10.893552 -7.334131 3.168677
Head 6.829154 -4.903704 -1.361041
LeftShoulder -21.577848 38.900596 17.525499
LeftArm 59.499972 -51.447352 -57.634407
LeftForeArm 11.884829 -0.000000 -0.738344
LeftHand 2.003703 -0.000000 4.798173
LeftHandThumb1 -26.253704 0.000000 33.147579
RightShoulder -7.366392 2.984637 -31.004798
RightArm 12.390139 14.903924 42.408364
RightForeArm -16.447737 -0.000000 3.303822
RightHand 2.283886 -0.000000 -0.321633
RightHandThumb1 -24.326973 -0.000000 -32.862282
LeftUpLeg -10.311022 -2.116765 4.328927
LeftLeg -2.705569 -0.000000 0.000000
LeftFoot -4.291880 9.099901 -18.002417
LeftToeBase -9.012373 -0.000000 0.000000
RightUpLeg -9.802010 5.604960 -0.250795
RightLeg -0.865339 -0.000000 0.000000
RightFoot -6.511219 -16.492577 7.445291
RightToeBase -7.967414 -0.000000 0.000000
820
root -3.840309 33.074733 6.251008 554.349471 176.692824 -541.914889
Spine -10.895498 -7.353409 3.117509
Head 7.053226 -4.827364 -1.591390
LeftShoulder -21.691392 38.759191 17.469899
LeftArm 59.562994 -51.912639 -57.828875
LeftForeArm 12.471154 -0.000000 -0.925950
LeftHand 1.961811 -0.000000 4.460755
LeftHandThumb1 -26.253704 0.000000 33.147579
RightShoulder -7.329191 3.101422 -31.095142
RightArm 12.402558 14.796775 42.107579
RightForeArm -16.416720 0.000000 3.123685
RightHand 1.942958 -0.000000 0.237968
RightHandThumb1 -24.326973 -0.000000 -32.862282
LeftUpLeg -10.172323 -2.252314 4.279880
LeftLeg -2.732493 -0.000000 0.000000
LeftFoot -4.382177 9.118482 -18.063167
LeftToeBase -9.042990 -0.000000 0.000000
RightUpLeg -9.587913 5.453975 -0.288911
RightLeg -1.046194 -0.000000 0.000000
RightFoot -6.476305 -16.464645 7.414872
RightToeBase -8.315505 -0.000000 0.000000
821
root -3.829124 33.066924 6.257976 554.259254 176.692641 -541.862978
Spine -10.915811 -7.350229 3.077805
Head 7.251101 -4.763033 -1.808744
LeftShoulder -21.826967 38.691306 17.348211
LeftArm 59.329150 -52.203449 -57.527704
LeftForeArm 12.813002 0.000000 -1.022501
LeftHand 1.185299 -0.000000 4.316024
LeftHandThumb1 -26.253704 0.000000 33.147579
RightShoulder -7.333821 3.147763 -31.147488
RightArm 12.451989 14.705639 41.737939
RightForeArm -16.292124 -0.000000 2.901603
RightHand 1.620325 -0.000000 0.777082
RightHandThumb1 -24.326973 -0.000000 -32.862282
LeftUpLeg -10.028565 -2.402644 4.251362
LeftLeg -2.805238 -0.000000 0.000000
LeftFoot -4.460821 9.123912 -18.210102
LeftToeBase -9.012120 -0.000000 0.000000
RightUpLeg -9.365939 5.311051 -0.324672
RightLeg -1.284294 -0.000000 0.000000
RightFoot -6.417086 -16.400470 7.375350
RightToeBase -8.173278 -0.000000 0.000000
